<svg width="14" height="15" viewBox="0 0 14 15" fill="none" xmlns="http://www.w3.org/2000/svg">
<g clip-path="url(#clip0_513_48)">
<rect width="14" height="14" transform="translate(0 0.34375)" fill="#0F0F0F"/>
<path d="M10.7188 0.34375H3.28125C1.46907 0.34375 0 1.81282 0 3.625V11.0625C0 12.8747 1.46907 14.3438 3.28125 14.3438H10.7188C12.5309 14.3438 14 12.8747 14 11.0625V3.625C14 1.81282 12.5309 0.34375 10.7188 0.34375Z" fill="white"/>
<path d="M10.7188 0.34375H3.28125C1.46907 0.34375 0 1.81282 0 3.625V11.0625C0 12.8747 1.46907 14.3438 3.28125 14.3438H10.7188C12.5309 14.3438 14 12.8747 14 11.0625V3.625C14 1.81282 12.5309 0.34375 10.7188 0.34375Z" fill="#0F0F0F"/>
<path d="M10.1016 12.2484H11.7023C11.7603 12.2484 11.8159 12.2254 11.857 12.1843C11.898 12.1433 11.921 12.0877 11.9211 12.0297L11.9219 8.64772C11.9219 6.88005 11.541 5.52134 9.47527 5.52134C8.69001 5.49214 7.94948 5.89694 7.54988 6.57287C7.54793 6.57616 7.54496 6.57871 7.54141 6.58015C7.53787 6.58158 7.53396 6.58182 7.53027 6.58082C7.52658 6.57982 7.52332 6.57764 7.52099 6.57462C7.51866 6.5716 7.51738 6.56789 7.51734 6.56407V5.90328C7.51734 5.84527 7.4943 5.78962 7.45327 5.7486C7.41225 5.70758 7.35661 5.68453 7.29859 5.68453H5.77954C5.72152 5.68453 5.66588 5.70758 5.62486 5.7486C5.58384 5.78962 5.56079 5.84527 5.56079 5.90328V12.0294C5.56079 12.0874 5.58384 12.143 5.62486 12.1841C5.66588 12.2251 5.72152 12.2481 5.77954 12.2481H7.38013C7.43815 12.2481 7.49379 12.2251 7.53481 12.1841C7.57584 12.143 7.59888 12.0874 7.59888 12.0294V9.00116C7.59888 8.14492 7.7613 7.31569 8.82284 7.31569C9.86929 7.31569 9.88285 8.29548 9.88285 9.05662V12.0296C9.88285 12.0877 9.9059 12.1433 9.94692 12.1843C9.98795 12.2254 10.0436 12.2484 10.1016 12.2484ZM2.07812 3.60466C2.07812 4.25347 2.61226 4.78733 3.26112 4.78733C3.90983 4.78727 4.44363 4.25309 4.44363 3.60438C4.44352 2.95568 3.90966 2.42188 3.26091 2.42188C2.61198 2.42188 2.07812 2.95584 2.07812 3.60466ZM2.4587 12.2484H4.06142C4.11944 12.2484 4.17508 12.2254 4.2161 12.1843C4.25713 12.1433 4.28017 12.0877 4.28017 12.0296V5.90328C4.28017 5.84527 4.25713 5.78962 4.2161 5.7486C4.17508 5.70758 4.11944 5.68453 4.06142 5.68453H2.4587C2.40068 5.68453 2.34504 5.70758 2.30402 5.7486C2.26299 5.78962 2.23995 5.84527 2.23995 5.90328V12.0296C2.23995 12.0877 2.26299 12.1433 2.30402 12.1843C2.34504 12.2254 2.40068 12.2484 2.4587 12.2484Z" fill="white"/>
</g>
<defs>
<clipPath id="clip0_513_48">
<rect width="14" height="14" fill="white" transform="translate(0 0.34375)"/>
</clipPath>
</defs>
</svg>
