<svg width="15" height="14" viewBox="0 0 15 14" fill="none" xmlns="http://www.w3.org/2000/svg">
<g clip-path="url(#clip0_335_213)">
<path fill-rule="evenodd" clip-rule="evenodd" d="M12.2104 6.16137C12.1537 2.81911 9.53665 0.12793 6.31661 0.12793C3.06102 0.12793 0.421875 2.87883 0.421875 6.27227C0.421875 7.87368 1.00962 9.332 1.97253 10.4256L1.53098 13.1945L4.15214 12.021C5.30703 12.4213 6.39693 12.5214 7.42188 12.3212" fill="#2F88FF"/>
<path d="M12.2104 6.16137C12.1537 2.81911 9.53665 0.12793 6.31661 0.12793C3.06102 0.12793 0.421875 2.87883 0.421875 6.27227C0.421875 7.87368 1.00962 9.332 1.97253 10.4256L1.53098 13.1945L4.15214 12.021C5.30703 12.4213 6.39693 12.5214 7.42187 12.3212" stroke="black" stroke-width="1.16667" stroke-linecap="round" stroke-linejoin="round"/>
<path d="M4.15219 5.68331C4.60999 5.68331 4.98114 5.2936 4.98114 4.81284C4.98114 4.33213 4.60999 3.94238 4.15219 3.94238C3.69439 3.94238 3.32324 4.33213 3.32324 4.81284C3.32324 5.2936 3.69439 5.68331 4.15219 5.68331Z" fill="white"/>
<path d="M7.46762 5.68331C7.92542 5.68331 8.29657 5.2936 8.29657 4.81284C8.29657 4.33213 7.92542 3.94238 7.46762 3.94238C7.00982 3.94238 6.63867 4.33213 6.63867 4.81284C6.63867 5.2936 7.00982 5.68331 7.46762 5.68331Z" fill="white"/>
<path fill-rule="evenodd" clip-rule="evenodd" d="M12.86 13.1579C12.2159 13.6575 11.4176 13.9531 10.553 13.9531C8.41652 13.9531 6.68457 12.1478 6.68457 9.9209C6.68457 7.69396 8.41652 5.88867 10.553 5.88867C12.6895 5.88867 14.4214 7.69396 14.4214 9.9209C14.4214 10.5352 14.2896 11.1175 14.0539 11.6385" fill="#2F88FF"/>
<path d="M12.86 13.1579C12.2159 13.6575 11.4176 13.9531 10.553 13.9531C8.41652 13.9531 6.68457 12.1478 6.68457 9.9209C6.68457 7.69396 8.41652 5.88867 10.553 5.88867C12.6895 5.88867 14.4214 7.69396 14.4214 9.9209C14.4214 10.5352 14.2896 11.1175 14.0539 11.6385" stroke="black" stroke-width="1.16667" stroke-linecap="round" stroke-linejoin="round"/>
<path fill-rule="evenodd" clip-rule="evenodd" d="M14.0552 11.6387L14.4228 13.9532L12.8613 13.1581" fill="#2F88FF"/>
<path d="M14.0552 11.6387L14.4228 13.9532L12.8613 13.1581" stroke="black" stroke-width="1.16667" stroke-linecap="round" stroke-linejoin="round"/>
<path d="M11.7272 9.65138C11.3838 9.65138 11.1055 9.3591 11.1055 8.99854C11.1055 8.63798 11.3838 8.3457 11.7272 8.3457C12.0705 8.3457 12.3489 8.63798 12.3489 8.99854C12.3489 9.3591 12.0705 9.65138 11.7272 9.65138Z" fill="white"/>
<path d="M9.24085 9.65138C8.89748 9.65138 8.61914 9.3591 8.61914 8.99854C8.61914 8.63798 8.89748 8.3457 9.24085 8.3457C9.58422 8.3457 9.86256 8.63798 9.86256 8.99854C9.86256 9.3591 9.58422 9.65138 9.24085 9.65138Z" fill="white"/>
</g>
<defs>
<clipPath id="clip0_335_213">
<rect width="14" height="13.8249" fill="white" transform="translate(0.421875 0.12793)"/>
</clipPath>
</defs>
</svg>
