<svg width="15" height="14" viewBox="0 0 15 14" fill="none" xmlns="http://www.w3.org/2000/svg">
<path d="M11.541 0.238281H4.10352C2.29133 0.238281 0.822266 1.68172 0.822266 3.46229V10.77C0.822266 12.5506 2.29133 13.9941 4.10352 13.9941H11.541C13.3532 13.9941 14.8223 12.5506 14.8223 10.77V3.46229C14.8223 1.68172 13.3532 0.238281 11.541 0.238281Z" fill="url(#paint0_radial_810_53)"/>
<path d="M11.541 0.238281H4.10352C2.29133 0.238281 0.822266 1.68172 0.822266 3.46229V10.77C0.822266 12.5506 2.29133 13.9941 4.10352 13.9941H11.541C13.3532 13.9941 14.8223 12.5506 14.8223 10.77V3.46229C14.8223 1.68172 13.3532 0.238281 11.541 0.238281Z" fill="url(#paint1_radial_810_53)"/>
<path d="M7.82276 1.74219C6.33755 1.74219 6.15113 1.74858 5.56783 1.77464C4.98563 1.80086 4.58821 1.89141 4.24051 2.02429C3.88077 2.16152 3.57567 2.34513 3.27172 2.64389C2.96749 2.94259 2.78063 3.24237 2.64052 3.59567C2.50489 3.93742 2.41263 4.32806 2.38644 4.89984C2.36035 5.47301 2.35352 5.65624 2.35352 7.11559C2.35352 8.57494 2.36008 8.75752 2.38655 9.33064C2.41334 9.90269 2.50549 10.2932 2.64062 10.6348C2.78041 10.9883 2.96727 11.288 3.27134 11.5867C3.57523 11.8856 3.88034 12.0697 4.2398 12.2069C4.58777 12.3398 4.98524 12.4303 5.56734 12.4565C6.15069 12.4826 6.33695 12.489 7.8221 12.489C9.30747 12.489 9.4933 12.4826 10.0766 12.4565C10.6588 12.4303 11.0566 12.3398 11.4046 12.2069C11.7642 12.0697 12.0689 11.8856 12.3727 11.5867C12.6769 11.288 12.8637 10.9883 13.0039 10.635C13.1383 10.2932 13.2306 9.90258 13.258 9.33075C13.2842 8.75763 13.291 8.57494 13.291 7.11559C13.291 5.65624 13.2842 5.47312 13.258 4.89994C13.2306 4.3279 13.1383 3.93747 13.0039 3.59583C12.8637 3.24237 12.6769 2.94259 12.3727 2.64389C12.0685 2.34502 11.7643 2.16142 11.4043 2.02434C11.0557 1.89141 10.658 1.80081 10.0758 1.77464C9.49248 1.74858 9.30676 1.74219 7.82106 1.74219H7.82276ZM7.33216 2.71052C7.47779 2.7103 7.64027 2.71052 7.82276 2.71052C9.28297 2.71052 9.456 2.71568 10.0326 2.74142C10.5658 2.76538 10.8552 2.85291 11.048 2.92647C11.3032 3.02384 11.4852 3.14028 11.6765 3.3284C11.8679 3.51647 11.9863 3.69556 12.0857 3.94633C12.1606 4.13548 12.2498 4.41983 12.274 4.94374C12.3002 5.51019 12.3059 5.68031 12.3059 7.11435C12.3059 8.54839 12.3002 8.71857 12.274 9.28497C12.2497 9.80887 12.1606 10.0932 12.0857 10.2824C11.9866 10.5332 11.8679 10.7118 11.6765 10.8997C11.4851 11.0878 11.3033 11.2042 11.048 11.3016C10.8555 11.3755 10.5658 11.4628 10.0326 11.4868C9.45611 11.5125 9.28297 11.5181 7.82276 11.5181C6.36249 11.5181 6.18941 11.5125 5.61295 11.4868C5.07974 11.4626 4.79034 11.375 4.5974 11.3015C4.34223 11.2041 4.1599 11.0877 3.96849 10.8996C3.77709 10.7115 3.65863 10.5329 3.55927 10.282C3.4844 10.0928 3.3952 9.80844 3.37092 9.28454C3.34473 8.71808 3.33948 8.54796 3.33948 7.11301C3.33948 5.67811 3.34473 5.50885 3.37092 4.94239C3.39531 4.41849 3.4844 4.13413 3.55927 3.94472C3.65841 3.69395 3.77709 3.51486 3.96855 3.32679C4.15995 3.13872 4.34223 3.02228 4.59745 2.9247C4.79023 2.85082 5.07974 2.7635 5.61295 2.73943C6.11744 2.71702 6.31295 2.7103 7.33216 2.70918V2.71052ZM10.742 3.60271C10.3797 3.60271 10.0857 3.89126 10.0857 4.2473C10.0857 4.60328 10.3797 4.8921 10.742 4.8921C11.1043 4.8921 11.3982 4.60328 11.3982 4.2473C11.3982 3.89131 11.1043 3.60249 10.742 3.60249V3.60271ZM7.82276 4.35611C6.27182 4.35611 5.01434 5.59165 5.01434 7.11559C5.01434 8.63952 6.27182 9.87448 7.82276 9.87448C9.37375 9.87448 10.6308 8.63952 10.6308 7.11559C10.6308 5.59171 9.37364 4.35611 7.82265 4.35611H7.82276ZM7.82276 5.32444C8.8295 5.32444 9.64571 6.1263 9.64571 7.11559C9.64571 8.10477 8.8295 8.90674 7.82276 8.90674C6.81596 8.90674 5.99986 8.10477 5.99986 7.11559C5.99986 6.1263 6.81596 5.32444 7.82276 5.32444Z" fill="white"/>
<defs>
<radialGradient id="paint0_radial_810_53" cx="0" cy="0" r="1" gradientUnits="userSpaceOnUse" gradientTransform="translate(4.54102 15.0535) rotate(-90) scale(13.633 12.9049)">
<stop stop-color="#FFDD55"/>
<stop offset="0.1" stop-color="#FFDD55"/>
<stop offset="0.5" stop-color="#FF543E"/>
<stop offset="1" stop-color="#C837AB"/>
</radialGradient>
<radialGradient id="paint1_radial_810_53" cx="0" cy="0" r="1" gradientUnits="userSpaceOnUse" gradientTransform="translate(-1.52279 1.22918) rotate(78.4854) scale(6.09822 25.5481)">
<stop stop-color="#3771C8"/>
<stop offset="0.128" stop-color="#3771C8"/>
<stop offset="1" stop-color="#6600FF" stop-opacity="0"/>
</radialGradient>
</defs>
</svg>
