<svg width="15" height="14" viewBox="0 0 15 14" fill="none" xmlns="http://www.w3.org/2000/svg">
<g clip-path="url(#clip0_810_48)">
<path d="M10.7646 0H3.32715C1.51496 0 0.0458984 1.46907 0.0458984 3.28125V10.7188C0.0458984 12.5309 1.51496 14 3.32715 14H10.7646C12.5768 14 14.0459 12.5309 14.0459 10.7188V3.28125C14.0459 1.46907 12.5768 0 10.7646 0Z" fill="white"/>
<path d="M10.7646 0H3.32715C1.51496 0 0.0458984 1.46907 0.0458984 3.28125V10.7188C0.0458984 12.5309 1.51496 14 3.32715 14H10.7646C12.5768 14 14.0459 12.5309 14.0459 10.7188V3.28125C14.0459 1.46907 12.5768 0 10.7646 0Z" fill="#0A66C2"/>
<path d="M10.1475 11.9046H11.7482C11.8062 11.9046 11.8618 11.8816 11.9029 11.8406C11.9439 11.7996 11.9669 11.744 11.967 11.686L11.9678 8.30397C11.9678 6.5363 11.5869 5.17759 9.52116 5.17759C8.73591 5.14839 7.99538 5.55319 7.59578 6.22912C7.59383 6.23241 7.59085 6.23496 7.58731 6.2364C7.58377 6.23783 7.57986 6.23807 7.57617 6.23707C7.57248 6.23607 7.56922 6.23389 7.56689 6.23087C7.56455 6.22785 7.56327 6.22414 7.56324 6.22032V5.55953C7.56324 5.50152 7.5402 5.44588 7.49917 5.40485C7.45815 5.36383 7.40251 5.34078 7.34449 5.34078H5.82544C5.76742 5.34078 5.71178 5.36383 5.67076 5.40485C5.62973 5.44588 5.60669 5.50152 5.60669 5.55953V11.6856C5.60669 11.7436 5.62973 11.7993 5.67076 11.8403C5.71178 11.8813 5.76742 11.9044 5.82544 11.9044H7.42603C7.48405 11.9044 7.53969 11.8813 7.58071 11.8403C7.62173 11.7993 7.64478 11.7436 7.64478 11.6856V8.65741C7.64478 7.80117 7.8072 6.97194 8.86874 6.97194C9.91519 6.97194 9.92875 7.95173 9.92875 8.71287V11.6859C9.92875 11.7439 9.9518 11.7996 9.99282 11.8406C10.0338 11.8816 10.0895 11.9046 10.1475 11.9046ZM2.12402 3.26091C2.12402 3.90972 2.65816 4.44358 3.30702 4.44358C3.95573 4.44352 4.48953 3.90934 4.48953 3.26063C4.48942 2.61193 3.95556 2.07812 3.3068 2.07812C2.65788 2.07812 2.12402 2.61209 2.12402 3.26091ZM2.50459 11.9046H4.10732C4.16534 11.9046 4.22098 11.8816 4.262 11.8406C4.30302 11.7996 4.32607 11.7439 4.32607 11.6859V5.55953C4.32607 5.50152 4.30302 5.44588 4.262 5.40485C4.22098 5.36383 4.16534 5.34078 4.10732 5.34078H2.50459C2.44658 5.34078 2.39094 5.36383 2.34991 5.40485C2.30889 5.44588 2.28584 5.50152 2.28584 5.55953V11.6859C2.28584 11.7439 2.30889 11.7996 2.34991 11.8406C2.39094 11.8816 2.44658 11.9046 2.50459 11.9046Z" fill="white"/>
</g>
<defs>
<clipPath id="clip0_810_48">
<rect width="14" height="14" fill="white" transform="translate(0.0458984)"/>
</clipPath>
</defs>
</svg>
