<svg width="28" height="28" viewBox="0 0 28 28" fill="none" xmlns="http://www.w3.org/2000/svg">
<g filter="url(#filter0_d_810_92)">
<g clip-path="url(#clip0_810_92)">
<path fill-rule="evenodd" clip-rule="evenodd" d="M20.8407 8.72834C20.7597 3.89323 17.0211 0 12.4211 0C7.77021 0 4 3.97962 4 8.88879C4 11.2055 4.83964 13.3152 6.21522 14.8973L5.58444 18.9029L9.32895 17.2053C10.9788 17.7843 12.5358 17.9291 14 17.6396" fill="#2F88FF"/>
<path d="M20.8407 8.72834C20.7597 3.89323 17.0211 0 12.4211 0C7.77021 0 4 3.97962 4 8.88879C4 11.2055 4.83964 13.3152 6.21522 14.8973L5.58444 18.9029L9.32895 17.2053C10.9788 17.7843 12.5358 17.9291 14 17.6396" stroke="black" stroke-width="1.16667" stroke-linecap="round" stroke-linejoin="round"/>
<path d="M9.32874 8.03708C9.98274 8.03708 10.513 7.47331 10.513 6.77782C10.513 6.08238 9.98274 5.51855 9.32874 5.51855C8.67474 5.51855 8.14453 6.08238 8.14453 6.77782C8.14453 7.47331 8.67474 8.03708 9.32874 8.03708Z" fill="white"/>
<path d="M14.0651 8.03708C14.7191 8.03708 15.2493 7.47331 15.2493 6.77782C15.2493 6.08238 14.7191 5.51855 14.0651 5.51855C13.4111 5.51855 12.8809 6.08238 12.8809 6.77782C12.8809 7.47331 13.4111 8.03708 14.0651 8.03708Z" fill="white"/>
<path fill-rule="evenodd" clip-rule="evenodd" d="M21.7683 18.8492C20.8481 19.5719 19.7077 19.9995 18.4726 19.9995C15.4205 19.9995 12.9463 17.3879 12.9463 14.1663C12.9463 10.9446 15.4205 8.33301 18.4726 8.33301C21.5247 8.33301 23.9989 10.9446 23.9989 14.1663C23.9989 15.055 23.8107 15.8973 23.4739 16.6511" fill="#2F88FF"/>
<path d="M21.7683 18.8492C20.8481 19.5719 19.7077 19.9995 18.4726 19.9995C15.4205 19.9995 12.9463 17.3879 12.9463 14.1663C12.9463 10.9446 15.4205 8.33301 18.4726 8.33301C21.5247 8.33301 23.9989 10.9446 23.9989 14.1663C23.9989 15.055 23.8107 15.8973 23.4739 16.6511" stroke="black" stroke-width="1.16667" stroke-linecap="round" stroke-linejoin="round"/>
<path fill-rule="evenodd" clip-rule="evenodd" d="M23.4761 16.6514L24.0011 19.9998L21.7705 18.8494" fill="#2F88FF"/>
<path d="M23.4761 16.6514L24.0011 19.9998L21.7705 18.8494" stroke="black" stroke-width="1.16667" stroke-linecap="round" stroke-linejoin="round"/>
<path d="M20.1509 13.7766C19.6603 13.7766 19.2627 13.3537 19.2627 12.8321C19.2627 12.3105 19.6603 11.8877 20.1509 11.8877C20.6414 11.8877 21.039 12.3105 21.039 12.8321C21.039 13.3537 20.6414 13.7766 20.1509 13.7766Z" fill="white"/>
<path d="M16.5981 13.7766C16.1076 13.7766 15.71 13.3537 15.71 12.8321C15.71 12.3105 16.1076 11.8877 16.5981 11.8877C17.0886 11.8877 17.4863 12.3105 17.4863 12.8321C17.4863 13.3537 17.0886 13.7766 16.5981 13.7766Z" fill="white"/>
</g>
</g>
<defs>
<filter id="filter0_d_810_92" x="0" y="0" width="28" height="28" filterUnits="userSpaceOnUse" color-interpolation-filters="sRGB">
<feFlood flood-opacity="0" result="BackgroundImageFix"/>
<feColorMatrix in="SourceAlpha" type="matrix" values="0 0 0 0 0 0 0 0 0 0 0 0 0 0 0 0 0 0 127 0" result="hardAlpha"/>
<feOffset dy="4"/>
<feGaussianBlur stdDeviation="2"/>
<feComposite in2="hardAlpha" operator="out"/>
<feColorMatrix type="matrix" values="0 0 0 0 0 0 0 0 0 0 0 0 0 0 0 0 0 0 0.25 0"/>
<feBlend mode="normal" in2="BackgroundImageFix" result="effect1_dropShadow_810_92"/>
<feBlend mode="normal" in="SourceGraphic" in2="effect1_dropShadow_810_92" result="shape"/>
</filter>
<clipPath id="clip0_810_92">
<rect width="20" height="20" fill="white" transform="translate(4)"/>
</clipPath>
</defs>
</svg>
